#!OML:ASF E:\Style4\Style4.ASF
:FULLY-SPECIFIED
:DEGREES
1398
root -1.46617 17.179 -2.21075 14.4994 9.86831 -0.445868
lowerback 21.1367 -0.308933 -9.47177
upperback 13.2055 -1.81305 -0.942566
thorax 3.03744 -1.41817 4.645
lowerneck 2.8622 -9.0897 -19.8651
upperneck 27.8625 -10.148 -2.89782
head 9.54442 -6.7282 1.42633
rclavicle 2.22639e-014 3.33958e-014
rhumerus 93.1942 27.3357 -1086.29
rradius 25.4159
rwrist 1111.64
rhand 32.1436 6.0604
rfingers 7.12502
rthumb 55.6231 -11.6177
lclavicle 2.22639e-014 3.33958e-014
lhumerus 47.7106 30.227 27.1275
lradius 119.645
lwrist 47.4569
lhand 9.04875 28.0647
lfingers 7.12502
lthumb 34.2236 54.7985
rfemur -43.7367 -8.74611 27.9687
rtibia 48.0553
rfoot -19.5777 -20.3648
rtoes -3.64838
lfemur -45.1323 -0.272595 -12.3695
ltibia 45.0272
lfoot -13.6672 4.68343
ltoes -18.3731
1399
root -1.50316 17.1738 -2.19178 14.5453 10.6793 -0.210921
lowerback 21.2956 -0.339578 -9.78976
upperback 13.1598 -1.91317 -0.74743
thorax 2.95687 -1.48854 5.05804
lowerneck 3.37678 -8.73287 -20.7296
upperneck 27.5102 -9.79883 -2.63452
head 9.37772 -6.6017 1.7068
rclavicle -6.36111e-015 3.89618e-014
rhumerus 94.7144 27.9684 -1084.88
rradius 26.0392
rwrist 1110.66
rhand 32.7628 5.77709
rfingers 7.12502
rthumb 56.1722 -11.4783
lclavicle -6.36111e-015 3.89618e-014
lhumerus 46.6441 30.3181 26.6887
lradius 119.632
lwrist 47.456
lhand 8.4204 28.0318
lfingers 7.12502
lthumb 33.6267 54.8977
rfemur -43.8483 -9.27017 27.9581
rtibia 48.3557
rfoot -19.9003 -20.6099
rtoes -3.6233
lfemur -45.2142 -0.703468 -12.4252
ltibia 44.8462
lfoot -13.486 4.39328
ltoes -18.4271
1400
root -1.54058 17.1716 -2.17056 14.6499 11.4882 0.0272846
lowerback 21.4142 -0.411024 -10.0729
upperback 13.0838 -2.05872 -0.614982
thorax 2.86576 -1.57444 5.39186
lowerneck 3.75057 -8.37772 -21.3761
upperneck 27.2092 -9.40421 -2.53183
head 9.22292 -6.44897 1.89588
rclavicle -7.95139e-015 -1.43125e-014
rhumerus 96.3385 28.6303 -1083.69
rradius 26.6055
rwrist 1109.68
rhand 33.3593 5.70728
rfingers 7.12502
rthumb 56.6991 -11.1267
lclavicle -7.95139e-015 -1.43125e-014
lhumerus 45.526 30.3852 26.0808
lradius 119.736
lwrist 47.6289
lhand 7.83898 28.1788
lfingers 7.12502
lthumb 33.0739 55.1633
rfemur -44.0101 -9.76711 27.9512
rtibia 48.6391
rfoot -20.2521 -20.8449
rtoes -3.34563
lfemur -45.3364 -1.06101 -12.4989
ltibia 44.6562
lfoot -13.285 4.03681
ltoes -18.3428
1401
root -1.57765 17.1674 -2.15101 14.7697 12.3178 0.268807
lowerback 21.5477 -0.548246 -10.2745
upperback 12.9951 -2.27824 -0.56722
thorax 2.75659 -1.68611 5.60202
lowerneck 4.26748 -7.96738 -22.1112
upperneck 26.6972 -9.05359 -2.16493
head 8.98247 -6.29178 2.19292
rclavicle -4.85035e-014 7.15625e-015
rhumerus 97.901 29.3864 -1082.94
rradius 27.1324
rwrist 1108.88
rhand 34.0035 5.68605
rfingers 7.12502
rthumb 57.2658 -10.6764
lclavicle -4.85035e-014 7.15625e-015
lhumerus 44.2919 30.531 25.2709
lradius 119.854
lwrist 47.8424
lhand 8.35765 28.5349
lfingers 7.12502
lthumb 33.567 55.4137
rfemur -44.1707 -10.2776 27.9447
rtibia 48.9223
rfoot -20.5857 -21.0629
rtoes -3.23543
lfemur -45.4819 -1.3622 -12.607
ltibia 44.4633
lfoot -12.9854 3.61593
ltoes -18.407
1402
root -1.61216 17.1611 -2.1341 14.9193 13.1672 0.545098
lowerback 21.6956 -0.674314 -10.5346
upperback 12.9021 -2.49527 -0.464193
thorax 2.64603 -1.80206 5.90639
lowerneck 4.85221 -7.56729 -22.9725
upperneck 26.0968 -8.76812 -1.69712
head 8.71597 -6.16033 2.53589
rclavicle -2.38542e-015 1.59028e-015
rhumerus 99.4292 29.905 -1081.74
rradius 27.9682
rwrist 1107.46
rhand 34.6586 5.47654
rfingers 7.12502
rthumb 57.8393 -10.3882
lclavicle -2.38542e-015 1.59028e-015
lhumerus 43.111 30.6671 24.5424
lradius 119.888
lwrist 47.8621
lhand 9.45961 28.9849
lfingers 7.12502
lthumb 34.6136 55.6303
rfemur -44.3852 -10.8547 27.921
rtibia 49.2148
rfoot -20.7768 -21.3328
rtoes -3.43639
lfemur -45.6704 -1.71317 -12.7508
ltibia 44.2654
lfoot -12.7024 3.24252
ltoes -18.8356
1403
root -1.64442 17.1538 -2.11698 15.0831 14.0372 0.779589
lowerback 21.8002 -0.76434 -10.778
upperback 12.8366 -2.65635 -0.272712
thorax 2.58556 -1.89681 6.28688
lowerneck 4.72265 -7.31485 -23.3777
upperneck 26.1993 -8.32095 -1.89519
head 8.75528 -6.00517 2.55723
rclavicle -3.26007e-014 2.38542e-015
rhumerus 100.869 30.3221 -1080.47
rradius 28.874
rwrist 1105.97
rhand 35.4077 5.37371
rfingers 7.12502
rthumb 58.4918 -9.89808
lclavicle -3.26007e-014 2.38542e-015
lhumerus 42.1288 30.7424 24.0525
lradius 119.875
lwrist 47.9028
lhand 9.77464 29.1438
lfingers 7.12502
lthumb 34.9126 55.7203
rfemur -44.6319 -11.4373 27.9573
rtibia 49.5083
rfoot -21.0384 -21.5816
rtoes -3.46726
lfemur -45.8855 -2.06904 -12.8457
ltibia 44.0688
lfoot -12.4109 2.90592
ltoes -19.5175
1404
root -1.67828 17.1493 -2.0992 15.1813 14.8846 0.916839
lowerback 21.9589 -0.83802 -10.9877
upperback 12.7799 -2.79699 -0.0567287
thorax 2.50594 -1.97997 6.67516
lowerneck 4.10089 -7.10395 -23.5478
upperneck 26.8759 -7.69316 -2.38896
head 9.04705 -5.81086 2.43243
rclavicle 3.57812e-014 2.70347e-014
rhumerus 102.396 30.7722 -1079.36
rradius 29.6699
rwrist 1104.52
rhand 36.0563 5.43306
rfingers 7.12502
rthumb 59.0535 -9.30392
lclavicle 3.57812e-014 2.70347e-014
lhumerus 41.1499 30.6391 23.5956
lradius 119.773
lwrist 47.7275
lhand 9.68856 28.8184
lfingers 7.12502
lthumb 34.8309 55.4138
rfemur -44.785 -11.8936 28.0595
rtibia 49.7738
rfoot -21.4053 -21.7854
rtoes -2.97
lfemur -46.0438 -2.32481 -12.8677
ltibia 43.8726
lfoot -12.1346 2.51556
ltoes -20.0416
1405
root -1.70941 17.1463 -2.08158 15.3182 15.6604 1.136
lowerback 22.1241 -0.866437 -11.3097
upperback 12.6754 -2.90491 0.185038
thorax 2.37761 -2.05 7.15334
lowerneck 3.76155 -6.84732 -24.078
upperneck 27.3684 -7.1532 -2.49616
head 9.27149 -5.65193 2.49872
rclavicle 1.11319e-014 1.74931e-014
rhumerus 103.887 31.0582 -1077.88
rradius 30.7238
rwrist 1102.71
rhand 36.4474 5.12679
rfingers 7.12502
rthumb 59.3908 -9.27755
lclavicle 1.11319e-014 1.74931e-014
lhumerus 40.2314 30.3082 23.3201
lradius 119.654
lwrist 47.2952
lhand 9.70124 28.5521
lfingers 7.12502
lthumb 34.8429 55.1447
rfemur -44.9453 -12.3435 28.0662
rtibia 50.0123
rfoot -21.7185 -21.9608
rtoes -2.43243
lfemur -46.1865 -2.57035 -12.9821
ltibia 43.6773
lfoot -11.8493 2.046
ltoes -19.7094
1406
root -1.73563 17.1444 -2.06466 15.4714 16.423 1.38225
lowerback 22.2083 -0.860335 -11.4982
upperback 12.6095 -2.93342 0.429284
thorax 2.30539 -2.07695 7.54159
lowerneck 3.75311 -6.61934 -24.7549
upperneck 27.5148 -6.81797 -2.33695
head 9.3463 -5.55379 2.67773
rclavicle 8.34896e-014 -3.4191e-014
rhumerus 105.058 31.2507 -1076.43
rradius 31.9748
rwrist 1100.81
rhand 37.0767 4.46091
rfingers 7.12502
rthumb 59.9309 -9.39176
lclavicle 8.34896e-014 -3.4191e-014
lhumerus 39.5299 30.2635 23.1474
lradius 119.595
lwrist 47.2392
lhand 9.53223 28.3396
lfingers 7.12502
lthumb 34.6825 54.9692
rfemur -45.1131 -12.8886 28.0648
rtibia 50.216
rfoot -22.045 -22.0489
rtoes -2.30326
lfemur -46.3144 -2.82864 -13.1301
ltibia 43.4672
lfoot -11.5745 1.5569
ltoes -19.0526
1407
root -1.76136 17.1434 -2.04771 15.6495 17.172 1.57253
lowerback 22.228 -0.890629 -11.5846
upperback 12.5906 -2.97965 0.635012
thorax 2.31002 -2.11143 7.82847
lowerneck 3.58043 -6.42417 -25.233
upperneck 27.6158 -6.47478 -2.27137
head 9.4131 -5.43953 2.79276
rclavicle 6.04305e-014 7.15625e-015
rhumerus 106.318 31.3136 -1075.14
rradius 33.133
rwrist 1098.94
rhand 37.7102 4.35228
rfingers 7.12502
rthumb 60.4714 -8.92341
lclavicle 6.04305e-014 7.15625e-015
lhumerus 38.785 30.5971 22.6988
lradius 119.429
lwrist 47.628
lhand 9.19997 28.1449
lfingers 7.12502
lthumb 34.3671 54.8464
rfemur -45.2985 -13.4033 28.1234
rtibia 50.3911
rfoot -22.2653 -22.1726
rtoes -2.10888
lfemur -46.4711 -3.10644 -13.194
ltibia 43.2321
lfoot -11.3343 1.1221
ltoes -18.4915
1408
root -1.78608 17.1455 -2.03008 15.8095 17.8761 1.79337
lowerback 22.3462 -0.946805 -11.8252
upperback 12.5417 -3.10079 0.819831
thorax 2.26443 -2.18709 8.19986
lowerneck 3.25183 -6.18507 -25.6189
upperneck 27.8073 -5.99548 -2.33764
head 9.51596 -5.27502 2.85584
rclavicle 4.77083e-014 -1.51076e-014
rhumerus 107.804 31.3518 -1073.9
rradius 34.1648
rwrist 1097.34
rhand 37.8335 4.89358
rfingers 7.12502
rthumb 60.5762 -8.26724
lclavicle 4.77083e-014 -1.51076e-014
lhumerus 37.7931 30.6849 22.1522
lradius 119.162
lwrist 47.7186
lhand 9.16279 27.8759
lfingers 7.12502
lthumb 34.3319 54.5854
rfemur -45.4418 -13.8966 28.1327
rtibia 50.5507
rfoot -22.5117 -22.3183
rtoes -2.01208
lfemur -46.5598 -3.39919 -13.2862
ltibia 42.9668
lfoot -11.0602 0.752871
ltoes -18.9329
1409
root -1.80749 17.1475 -2.0128 15.9456 18.5508 2.04283
lowerback 22.4331 -0.97152 -12.0937
upperback 12.5324 -3.18019 1.02074
thorax 2.27646 -2.24973 8.59603
lowerneck 3.04506 -5.94629 -26.0463
upperneck 27.8864 -5.57243 -2.33447
head 9.56405 -5.12518 2.94967
rclavicle -7.95139e-015 5.56597e-015
rhumerus 109.206 31.2764 -1072.58
rradius 35.3425
rwrist 1095.66
rhand 37.7866 4.98125
rfingers 7.12502
rthumb 60.5364 -8.22339
lclavicle -7.95139e-015 5.56597e-015
lhumerus 36.9381 30.775 21.8203
lradius 119.201
lwrist 47.7573
lhand 9.26267 27.803
lfingers 7.12502
lthumb 34.4267 54.4911
rfemur -45.5404 -14.3669 28.0836
rtibia 50.6923
rfoot -22.7686 -22.4509
rtoes -1.8334
lfemur -46.5985 -3.66666 -13.4388
ltibia 42.6849
lfoot -10.7937 0.410633
ltoes -19.2933
1410
root -1.82734 17.148 -1.99596 16.1272 19.1905 2.33084
lowerback 22.3683 -0.967666 -12.2701
upperback 12.5896 -3.18364 1.18737
thorax 2.4099 -2.27838 8.87813
lowerneck 2.79988 -5.79074 -26.3629
upperneck 27.9721 -5.24933 -2.33314
head 9.62459 -5.01088 3.01741
rclavicle 3.10104e-014 1.11319e-014
rhumerus 110.325 31.0974 -1071.41
rradius 36.6587
rwrist 1093.73
rhand 38.0992 4.65177
rfingers 7.12502
rthumb 60.8017 -8.25844
lclavicle 3.10104e-014 1.11319e-014
lhumerus 36.4085 31.2571 21.5077
lradius 119.413
lwrist 48.1138
lhand 9.32291 27.8308
lfingers 7.12502
lthumb 34.4839 54.5058
rfemur -45.6676 -14.8168 27.9914
rtibia 50.8306
rfoot -23.0355 -22.5615
rtoes -1.40737
lfemur -46.6507 -3.92355 -13.6389
ltibia 42.3982
lfoot -10.5703 0.114192
ltoes -18.6903
